<?xml version="1.0" encoding="UTF-8" standalone="no"?>
<!-- Created with Inkscape (http://www.inkscape.org/) -->

<svg
   xmlns:dc="http://purl.org/dc/elements/1.1/"
   xmlns:cc="http://creativecommons.org/ns#"
   xmlns:rdf="http://www.w3.org/1999/02/22-rdf-syntax-ns#"
   xmlns:svg="http://www.w3.org/2000/svg"
   xmlns="http://www.w3.org/2000/svg"
   xmlns:sodipodi="http://sodipodi.sourceforge.net/DTD/sodipodi-0.dtd"
   xmlns:inkscape="http://www.inkscape.org/namespaces/inkscape"
   id="svg2"
   version="1.1"
   inkscape:version="0.91 r"
   width="2400"
   height="2398.75"
   viewBox="0 0 2400 2398.75"
   sodipodi:docname="smoking-half.svg">
  <metadata
     id="metadata8">
    <rdf:RDF>
      <cc:Work
         rdf:about="">
        <dc:format>image/svg+xml</dc:format>
        <dc:type
           rdf:resource="http://purl.org/dc/dcmitype/StillImage" />
        <dc:title />
      </cc:Work>
    </rdf:RDF>
  </metadata>
  <defs
     id="defs6" />
  <sodipodi:namedview
     pagecolor="#ffffff"
     bordercolor="#666666"
     borderopacity="1"
     objecttolerance="10"
     gridtolerance="10"
     guidetolerance="10"
     inkscape:pageopacity="0"
     inkscape:pageshadow="2"
     inkscape:window-width="1280"
     inkscape:window-height="734"
     id="namedview4"
     showgrid="false"
     inkscape:zoom="0.19676915"
     inkscape:cx="1225.7804"
     inkscape:cy="1216.636"
     inkscape:window-x="0"
     inkscape:window-y="27"
     inkscape:window-maximized="1"
     inkscape:current-layer="svg2" />
  <path
     style="fill:#aaaaaa"
     d="M 2010.625 1481.7891 L 2048.125 1481.7891 L 2085.625 1481.7891 L 2085.625 1611.7891 L 2085.625 1741.7891 L 2048.125 1741.7891 L 2010.625 1741.7891 L 2010.625 1611.7891 L 2010.625 1481.7891 z "
     id="path3341" />
  <path
     style="fill:#aaaaaa"
     d="M 1199.375 765.30469 L 1199.375 469.61133 C 1145.2931 508.3704 1114.8164 575.23853 1125.0078 643.0918 C 1130.7972 681.6373 1146.9971 714.87522 1173.5254 742.63672 C 1181.6296 751.11765 1190.2683 758.67819 1199.375 765.30469 z "
     id="path3339" />
  <path
     style="fill:#aaaaaa"
     d="M 1199.375 2398.7305 C 1202.7838 2398.73 1202.2081 2398.7329 1205.625 2398.7324 C 2098.4565 2398.6084 2140.6103 2398.5013 2153.7324 2396.3555 C 2161.2855 2395.1202 2174.8664 2392.2128 2183.9121 2389.8945 C 2296.3397 2361.0796 2378.1784 2269.8971 2396.4961 2153.0391 C 2398.6525 2139.2828 2398.75 2098.2801 2398.75 1200.5391 C 2398.75 308.11805 2398.641 261.71373 2396.5293 248.03906 C 2389.8985 205.0985 2374.9041 165.07999 2352.8477 131.45898 C 2306.9518 61.498966 2236.4005 16.431959 2152.5 3.4804688 C 2137.998 1.2418588 2106.3529 1.1640625 1199.375 1.1640625 L 1199.375 384.60547 C 1217.2939 376.3768 1236.1772 370.15921 1255.9746 366.17578 C 1272.0213 362.94701 1300.4205 360.23583 1302.207 361.76172 C 1302.733 362.2113 1303.0146 378.85105 1302.832 398.74023 L 1302.5 434.90234 L 1288.75 436.39258 C 1269.9129 438.43352 1262.1532 440.0555 1246.9707 445.12695 C 1229.6145 450.9245 1213.7128 459.33585 1199.375 469.61133 L 1199.375 765.30469 C 1238.6183 793.86011 1286.5746 805.00549 1338.125 797.03906 C 1354.4771 794.51206 1360.9886 795.03008 1370.8984 799.64648 C 1382.2566 804.93758 1390.4625 814.99593 1393.7656 827.67773 C 1397.3795 841.55219 1395.8029 848.75544 1385.0801 867.33594 C 1371.1548 891.46604 1366.3461 909.06926 1366.4473 935.53906 C 1366.5066 950.95716 1367.0046 955.50206 1369.7812 965.97656 C 1383.8736 1019.1355 1426.1365 1056.3035 1480 1062.9043 C 1487.5941 1063.8349 1537.4452 1064.2852 1633.4004 1064.2852 C 1756.8846 1064.2882 1777.3069 1064.5505 1788.9297 1066.2773 C 1872.2767 1078.6596 1935.8848 1145.3128 1944.3223 1229.1094 C 1945.0697 1236.5312 1945.625 1274.2645 1945.625 1317.5469 L 1945.625 1393.0391 L 1908.8398 1393.0391 L 1872.0527 1393.0391 L 1871.5527 1312.7266 C 1871.0674 1234.8142 1870.9715 1232.0966 1868.2969 1221.7891 C 1862.4945 1199.4282 1848.4119 1177.0066 1831.6523 1163.4434 C 1823.1546 1156.5665 1808.5935 1148.1922 1799.3477 1144.8652 C 1782.0676 1138.6469 1788.0267 1138.8766 1622.5 1138.0508 C 1468.1884 1137.2809 1467.4461 1137.2652 1455.2656 1134.498 C 1411.7521 1124.6129 1378.7509 1106.62 1349.375 1076.7637 C 1319.07 1045.963 1299.7391 1007.1692 1293.0176 963.66406 C 1289.4555 940.60896 1291.7311 903.83286 1298.0566 882.22656 L 1300.3066 874.53711 L 1296.5605 873.78906 C 1294.4995 873.37676 1290.2829 873.03906 1287.1914 873.03906 C 1266.056 873.03906 1226.7323 862.896 1199.375 850.85352 L 1199.375 1480.5391 L 1801.875 1480.5391 L 1801.875 1611.1641 L 1801.875 1741.7891 L 1199.375 1741.7891 L 1199.375 2398.7305 z M 1370.625 441.78906 L 1386.1172 441.78906 C 1509.1521 441.78906 1618.7417 520.47105 1657.3223 636.50586 C 1668.7567 670.89596 1672.5435 697.16638 1671.5488 735.20898 C 1670.515 774.74228 1663.1633 807.72833 1647.3379 843.83789 C 1646.8802 844.88249 1658.8128 845.42943 1692.1074 845.89062 C 1724.6737 846.34163 1741.1555 847.08362 1750.4355 848.51562 C 1824.0841 859.88013 1883.2129 885.32412 1940.625 930.35742 C 1956.3903 942.72342 1989.9948 976.66806 2002.6797 993.03906 C 2050.4927 1054.7459 2077.7539 1124.245 2084.3184 1201.1641 C 2085.0367 1209.5807 2085.5993 1254.9789 2085.6113 1304.6016 L 2085.6133 1304.6016 L 2085.625 1393.0391 L 2048.1953 1393.0391 L 2010.7656 1393.0391 L 2010.3008 1296.4766 C 2009.7993 1192.1325 2009.8002 1192.1373 2002.5117 1161.1641 C 1972.0938 1031.9005 1863.2918 935.77392 1731.6113 921.82422 C 1724.9353 921.11692 1690.904 920.52767 1655.9863 920.51367 C 1621.0685 920.49977 1588.9927 919.98113 1584.707 919.36133 C 1564.2837 916.40733 1549.7083 900.95402 1548.3906 880.85742 C 1547.5613 868.20932 1549.5422 862.48843 1560.3223 846.39062 C 1582.4303 813.37677 1593.7794 781.42854 1596.8301 743.61914 C 1606.6985 621.31554 1509.9796 516.98984 1386.5625 516.8125 L 1370.625 516.78906 L 1370.625 479.28906 L 1370.625 441.78906 z M 1871.875 1481.7891 L 1908.75 1481.7891 L 1945.625 1481.7891 L 1945.625 1611.7891 L 1945.625 1741.7891 L 1908.75 1741.7891 L 1871.875 1741.7891 L 1871.875 1611.7891 L 1871.875 1481.7891 z "
     id="path3336" />
  <path
     style="fill:#000000;fill-opacity:1"
     d="M 1199.375 2398.7305 L 1199.375 1741.7891 L 1063.75 1741.7891 L 325.625 1741.7891 L 325.625 1611.1641 L 325.625 1480.5391 L 1063.75 1480.5391 L 1199.375 1480.5391 L 1199.375 850.85352 C 1196.6592 849.65805 1193.918 848.46158 1191.4707 847.23633 C 1133.5294 818.22807 1086.6082 765.76073 1064.8438 705.64453 C 1030.8052 611.62603 1053.7131 507.58381 1123.9102 437.38672 C 1146.3507 414.94618 1171.6861 397.32074 1199.375 384.60547 L 1199.375 1.1640625 C 306.9539 1.1640625 260.5497 1.2731256 246.875 3.3847656 C 206.6417 9.5975956 167.30334 23.752729 135.71484 43.386719 C 110.78194 58.883839 84.498563 81.644338 66.726562 103.12891 C 32.018562 145.08755 10.734703 192.90386 2.2207031 248.03906 C 0.10900312 261.71373 0 308.11805 0 1200.5391 C 2.9605947e-16 2098.2801 0.09760625 2139.2828 2.2539062 2153.0391 C 9.0545063 2196.4235 24.164781 2236.2347 46.613281 2269.9141 C 96.650881 2344.985 175.6731 2391.3521 265.625 2398.4199 C 268.69813 2398.6615 690.1009 2398.7982 1199.375 2398.7305 z "
     id="path3338" />
  <path
     style="fill:#000000;fill-opacity:1;fill-rule:nonzero;stroke:none"
     d="M 0.94393438,1132.0504 C 0.97087814,608.46186 1.9268265,267.4445 3.4069866,253.40096 10.158002,189.34831 41.9069,126.17121 90.361585,80.370094 124.53341,48.069655 164.35988,25.524031 211.89592,11.569938 l 24.05099,-7.0601123 480.89347,-0.6987891 480.89352,-0.6987891 0,190.5656425 0,190.56564 -10.7995,5.49141 c -30.4092,15.46276 -66.5202,46.48094 -87.9651,75.5592 -87.1543,118.17742 -57.4546,285.33627 65.0949,366.37412 10.1321,6.69999 21.8527,13.70037 26.0458,15.55643 l 7.6239,3.37464 0,314.46977 0,314.4697 -437.0833,0 -437.08325,0 0.65813,131.4993 0.65813,131.4993 436.42513,0.6425 436.42516,0.6425 0,121.9631 0,121.9631 -598.41702,0 -598.41697945,0 0.0440338,-855.6982 z"
     id="path3343"
     inkscape:connector-curvature="0" />
  <path
     style="fill:#000000;fill-opacity:1;fill-rule:nonzero;stroke:none"
     d="m 1185.4744,752.34971 c -18.7893,-17.52935 -34.0026,-38.11604 -43.7964,-59.26547 -13.3689,-28.86935 -16.3885,-43.58314 -16.1661,-78.77251 0.1632,-25.83422 1.2204,-33.59816 6.9202,-50.82097 9.4081,-28.42795 22.7787,-49.91591 44.9734,-72.27701 l 19.0578,-19.20075 0.6743,73.05515 c 0.3708,40.18034 0.3708,105.56281 0,145.2944 l -0.6743,72.23925 -10.9889,-10.25209 z"
     id="path3345"
     inkscape:connector-curvature="0" />
</svg>
