<?xml version="1.0" encoding="UTF-8" standalone="no"?>
<!-- Created with Inkscape (http://www.inkscape.org/) -->

<svg
   xmlns:dc="http://purl.org/dc/elements/1.1/"
   xmlns:cc="http://creativecommons.org/ns#"
   xmlns:rdf="http://www.w3.org/1999/02/22-rdf-syntax-ns#"
   xmlns:svg="http://www.w3.org/2000/svg"
   xmlns="http://www.w3.org/2000/svg"
   xmlns:sodipodi="http://sodipodi.sourceforge.net/DTD/sodipodi-0.dtd"
   xmlns:inkscape="http://www.inkscape.org/namespaces/inkscape"
   id="svg2"
   version="1.1"
   inkscape:version="0.91 r"
   width="2400"
   height="2398.75"
   viewBox="0 0 2400 2398.75"
   sodipodi:docname="smoking-99178.svg">
  <metadata
     id="metadata8">
    <rdf:RDF>
      <cc:Work
         rdf:about="">
        <dc:format>image/svg+xml</dc:format>
        <dc:type
           rdf:resource="http://purl.org/dc/dcmitype/StillImage" />
        <dc:title></dc:title>
      </cc:Work>
    </rdf:RDF>
  </metadata>
  <defs
     id="defs6" />
  <sodipodi:namedview
     pagecolor="#ffffff"
     bordercolor="#666666"
     borderopacity="1"
     objecttolerance="10"
     gridtolerance="10"
     guidetolerance="10"
     inkscape:pageopacity="0"
     inkscape:pageshadow="2"
     inkscape:window-width="1280"
     inkscape:window-height="734"
     id="namedview4"
     showgrid="false"
     inkscape:zoom="0.19676915"
     inkscape:cx="1103.1463"
     inkscape:cy="1169.0357"
     inkscape:window-x="0"
     inkscape:window-y="27"
     inkscape:window-maximized="1"
     inkscape:current-layer="svg2" />
  <path
     style="fill:#aaaaaa"
     d="M 265.625,2398.4194 C 175.6731,2391.3516 96.6502,2344.985 46.6126,2269.9141 24.1641,2236.2347 9.0539,2196.4235 2.2533,2153.0391 0.097,2139.2828 0,2098.2801 0,1200.5391 0,308.11809 0.1081,261.71382 2.2198,248.03915 10.7338,192.90395 32.0192,145.08852 66.7272,103.12988 84.4992,81.645312 110.7821,58.884682 135.715,43.387562 167.3035,23.753572 206.6417,9.5967721 246.875,3.3839421 c 13.6747,-2.11164 60.0789,-2.21979 952.5,-2.21979 906.9779,0 938.623,0.0769 953.125,2.31551 83.9005,12.9514899 154.452,58.0185099 200.3479,127.9785279 22.0564,33.62101 37.0515,73.6404 43.6823,116.58096 2.1117,13.67467 2.2198,60.07894 2.2198,952.49995 0,897.741 -0.097,938.7437 -2.2534,952.5 -18.3177,116.858 -100.1571,208.0411 -212.5847,236.856 -9.0457,2.3183 -22.6261,5.2256 -30.1792,6.4609 -13.1221,2.1458 -55.2762,2.2515 -948.1077,2.3755 -513.9063,0.071 -936.9063,-0.069 -940,-0.3122 z m 1536.25,-787.2553 0,-130.625 -738.125,0 -738.125,0 0,130.625 0,130.625 738.125,0 738.125,0 0,-130.625 z m 143.75,0.625 0,-130 -36.875,0 -36.875,0 0,130 0,130 36.875,0 36.875,0 0,-130 z m 140,0 0,-130 -37.5,0 -37.5,0 0,130 0,130 37.5,0 37.5,0 0,-130 z m -140,-294.2425 c 0,-43.2824 -0.5561,-81.0158 -1.3035,-88.4376 -8.4375,-83.7966 -72.0454,-150.4498 -155.3924,-162.8321 -11.6228,-1.7268 -32.0453,-1.9883 -155.5295,-1.9913 -95.9552,0 -145.8055,-0.4516 -153.3996,-1.3822 -53.8635,-6.6008 -96.127,-43.7669 -110.2194,-96.92587 -2.7767,-10.4745 -3.2747,-15.0203 -3.334,-30.4384 -0.1012,-26.4698 4.7073,-44.0726 18.6326,-68.2027 10.7228,-18.5805 12.3007,-25.7846 8.6868,-39.65906 -3.3031,-12.6818 -11.5084,-22.7404 -22.8666,-28.0315 -9.9098,-4.6164 -16.4223,-5.1346 -32.7744,-2.6076 -63.513,9.8151 -121.5719,-9.3739 -164.5993,-54.4015 -26.5283,-27.7615 -42.7284,-60.9996 -48.5178,-99.5451 -12.8933,-85.84196 39.1392,-170.29881 121.9628,-197.96466 15.1825,-5.07145 22.9422,-6.69376 41.7793,-8.7347 l 13.75,-1.48977 0.332,-36.16215 c 0.1826,-19.88918 -0.099,-36.52996 -0.625,-36.97954 -1.7865,-1.52589 -30.1864,1.18596 -46.2331,4.41473 -50.3891,10.13877 -95.1,34.24767 -132.0629,71.21057 -70.1971,70.19709 -93.1064,174.24072 -59.0679,268.25922 21.7645,60.1162 68.687,112.5836 126.6283,141.59186 27.1001,13.5677 72.4867,25.8019 95.7202,25.8019 3.0915,0 7.3073,0.3372 9.3683,0.7495 l 3.7473,0.7494 -2.2506,7.6881 c -6.3255,21.6063 -8.601,58.3829 -5.0389,81.438 6.7215,43.50517 26.0523,82.29847 56.3573,113.09917 29.3759,29.8563 62.3766,47.8494 105.8901,57.7345 12.1805,2.7672 12.9233,2.7829 167.2349,3.5528 165.5267,0.8258 159.5671,0.5961 176.8472,6.8144 9.2458,3.327 23.807,11.701 32.3047,18.5779 16.7596,13.5632 30.8418,35.9853 36.6442,58.3462 2.6746,10.3075 2.772,13.0251 3.2573,90.9375 l 0.5001,80.3125 36.7857,0 36.7858,0 0,-75.4925 z m 139.9871,-12.945 c -0.012,-49.6227 -0.5747,-95.0209 -1.293,-103.4375 -6.5645,-76.9191 -33.8261,-146.4181 -81.6391,-208.12497 -12.6849,-16.371 -46.2897,-50.3148 -62.055,-62.6808 -57.4121,-45.0333 -116.5414,-70.4777 -190.19,-81.8422 -9.28,-1.432 -25.7619,-2.1737 -58.3282,-2.6247 -33.2946,-0.4612 -45.2268,-1.0084 -44.7691,-2.053 15.8254,-36.10956 23.1774,-69.09666 24.2112,-108.62996 0.9947,-38.0426 -2.7915,-64.3122 -14.2259,-98.7023 -38.5806,-116.03481 -148.1706,-194.71702 -271.2055,-194.71702 l -15.4925,0 0,37.5 0,37.5 15.9375,0.0229 c 123.4171,0.17734 220.1354,104.50372 210.267,226.80732 -3.0507,37.8094 -14.3997,69.7574 -36.5077,102.77126 -10.7801,16.0978 -12.7603,21.8185 -11.931,34.4666 1.3177,20.0966 15.8937,35.5506 36.317,38.5046 4.2857,0.6198 36.3612,1.1383 71.279,1.1522 34.9177,0.014 68.949,0.6037 75.625,1.311 131.6805,13.9497 240.4822,110.07547 270.9001,239.33907 7.2885,30.9732 7.2882,30.9684 7.7897,135.3125 l 0.464,96.5625 37.4297,0 37.4297,0 -0.012,-88.4375 z"
     id="path3338"
     inkscape:connector-curvature="0" />
</svg>
